<svg width="106" height="106" viewBox="0 0 106 106" fill="none" xmlns="http://www.w3.org/2000/svg">
<path d="M52.9545 15.264C52.5984 15.2717 52.2666 15.3894 51.9478 15.6083L19.7238 41.0483C18.9826 41.6439 18.8773 42.7424 19.4321 43.4599C19.9793 44.1668 21.1428 44.2804 21.8438 43.7249L53.0078 19.1329L84.1718 43.7249C84.8727 44.2804 86.0044 44.1626 86.5568 43.4599C87.1051 42.7625 87.0466 41.6037 86.2918 41.0483L54.0678 15.6083C53.6904 15.3598 53.3107 15.2563 52.9546 15.264H52.9545ZM31.8075 38.0813L28.4158 40.7579V67.8409L28.4152 67.8403C28.4152 68.7767 29.1747 69.5362 30.1111 69.5362H45.3751C46.3115 69.5362 47.0709 68.7767 47.0709 67.8403V52.5763H58.9426V67.8403H58.9432C58.9432 68.7767 59.7021 69.5362 60.6391 69.5362H75.9031C76.8394 69.5362 77.5989 68.7767 77.5989 67.8403V40.7573L74.2072 38.0807V66.1434H62.3355V50.8794L62.3349 50.88C62.3349 49.943 61.5754 49.1842 60.6391 49.1842H45.3751C44.4387 49.1842 43.6792 49.9431 43.6792 50.88V66.144H31.8075L31.8075 38.0813Z" fill="#6A6060"/>
</svg>
